<svg width="500" height="300" xmlns="http://www.w3.org/2000/svg">
  <rect width="100%" height="100%" fill="#e8f5e9"/>
  <ellipse cx="250" cy="200" rx="200" ry="50" fill="#81c784"/>
  <path d="M 100 180 C 120 120, 150 100, 140 180 Z" fill="#4caf50"/>
  <path d="M 180 200 C 200 140, 230 120, 220 200 Z" fill="#2e7d32"/>
  <path d="M 280 190 C 300 130, 330 110, 320 190 Z" fill="#4caf50"/>
  <path d="M 350 180 C 370 120, 400 100, 390 180 Z" fill="#2e7d32"/>
  <ellipse cx="150" cy="150" rx="20" ry="10" fill="#ef5350"/>
  <ellipse cx="200" cy="140" rx="15" ry="8" fill="#ab47bc"/>
  <ellipse cx="250" cy="130" rx="18" ry="9" fill="#2196f3"/>
  <ellipse cx="300" cy="140" rx="15" ry="8" fill="#ffeb3b"/>
  <ellipse cx="350" cy="150" rx="20" ry="10" fill="#ff7043"/>
  <path d="M 0 200 L 100 200 M 400 200 L 500 200" stroke="#81c784" stroke-width="5" stroke-dasharray="10,5"/>
  <text x="250" y="270" font-family="Arial" font-size="24" text-anchor="middle" fill="#1b5e20">Botanical Gardens</text>
</svg>